<svg width="16" height="18" viewBox="0 0 16 18" fill="none" xmlns="http://www.w3.org/2000/svg">
<path fill-rule="evenodd" clip-rule="evenodd" d="M5.88331 0.98556C6.97654 0.338147 8.32346 0.338147 9.41669 0.98556L13.5333 3.42343C14.6265 4.07084 15.3 5.26731 15.3 6.56214V11.4379C15.3 12.7327 14.6265 13.9292 13.5333 14.5766L9.41669 17.0144C8.32346 17.6619 6.97654 17.6619 5.88331 17.0144L1.76669 14.5766C0.673459 13.9292 0 12.7327 0 11.4379V6.56214C0 5.26731 0.673459 4.07084 1.76669 3.42343L5.88331 0.98556ZM7.65 5.3875C7.0632 5.3875 6.5875 5.8632 6.5875 6.45C6.5875 6.80208 6.30208 7.0875 5.95 7.0875C5.59792 7.0875 5.3125 6.80208 5.3125 6.45C5.3125 5.15903 6.35903 4.1125 7.65 4.1125C8.94097 4.1125 9.9875 5.15903 9.9875 6.45C9.9875 6.91439 9.85142 7.34894 9.61675 7.71364C9.46976 7.94207 9.29791 8.16015 9.13945 8.35709L9.05399 8.46301C8.92251 8.62575 8.80182 8.77513 8.69029 8.92841C8.41525 9.30642 8.2875 9.59049 8.2875 9.85V10.275C8.2875 10.6271 8.00208 10.9125 7.65 10.9125C7.29792 10.9125 7.0125 10.6271 7.0125 10.275V9.85C7.0125 9.17062 7.34605 8.60881 7.65932 8.17826C7.79168 7.99634 7.93673 7.81692 8.06863 7.65377L8.1461 7.55779C8.30351 7.36216 8.43751 7.19005 8.54454 7.02371C8.6508 6.85858 8.7125 6.66247 8.7125 6.45C8.7125 5.8632 8.2368 5.3875 7.65 5.3875ZM8.2875 12.4C8.2875 12.0479 8.00208 11.7625 7.65 11.7625C7.29792 11.7625 7.0125 12.0479 7.0125 12.4V13.25C7.0125 13.6021 7.29792 13.8875 7.65 13.8875C8.00208 13.8875 8.2875 13.6021 8.2875 13.25V12.4Z" fill="#6D6D6D"/>
</svg>
