<svg version="1.1" xmlns="http://www.w3.org/2000/svg" xmlns:xlink="http://www.w3.org/1999/xlink" viewBox="0 0 100 100" xml:space="preserve">
<g>
	<path fill="#666666" d="M57,49c-3.3,0-6-2.7-6-6c0-2.8,2-5.2,4.6-5.8C53.9,36.4,52,36,50,36c-7.7,0-14,6.3-14,14s6.3,14,14,14
		s14-6.3,14-14c0-2-0.4-3.9-1.2-5.6C62.2,47,59.8,49,57,49z"/>
	<path fill="#666666" d="M50,17C26.1,17,5.9,31,0,50c5.9,19,26.1,33,50,33s44.1-14,50-33C94.1,31,73.9,17,50,17z M50,75
		c-13.8,0-25-11.2-25-25s11.2-25,25-25s25,11.2,25,25S63.8,75,50,75z"/>
</g>
</svg>
