<svg width="21" height="21" viewBox="0 0 21 21" fill="none" xmlns="http://www.w3.org/2000/svg">
<path fill-rule="evenodd" clip-rule="evenodd" d="M5.1 4.24999C5.1 3.3111 5.86111 2.54999 6.8 2.54999H13.6C14.5389 2.54999 15.3 3.3111 15.3 4.24999V5.09999H5.1V4.24999ZM3.4 8.07499C3.4 7.1361 4.16111 6.37499 5.1 6.37499H15.3C16.2389 6.37499 17 7.1361 17 8.07499V8.92499H3.4V8.07499ZM1.7 11.9C1.7 10.9611 2.46111 10.2 3.4 10.2H17C17.9389 10.2 18.7 10.9611 18.7 11.9V14.45C18.7 16.3278 17.1778 17.85 15.3 17.85H5.1C3.22223 17.85 1.7 16.3278 1.7 14.45V11.9ZM7.8625 12.75C7.8625 12.3979 8.14792 12.1125 8.5 12.1125H11.9C12.2521 12.1125 12.5375 12.3979 12.5375 12.75C12.5375 13.1021 12.2521 13.3875 11.9 13.3875H8.5C8.14792 13.3875 7.8625 13.1021 7.8625 12.75Z" fill="#6D6D6D"/>
</svg>
