<svg width="16" height="18" viewBox="0 0 16 18" fill="none" xmlns="http://www.w3.org/2000/svg">
<path fill-rule="evenodd" clip-rule="evenodd" d="M2.05001 0.485504H13.95C14.8889 0.485504 15.65 1.24662 15.65 2.1855V15.0667C15.65 16.2441 14.482 17.065 13.3742 16.6662L12.0467 16.1883C11.6319 16.039 11.1753 16.0566 10.7732 16.2375L8.69763 17.1716C8.25397 17.3712 7.74604 17.3712 7.30239 17.1716L5.22677 16.2375C4.82474 16.0566 4.36814 16.039 3.95333 16.1883L2.62583 16.6662C1.51801 17.065 0.350006 16.2441 0.350006 15.0667V2.1855C0.350006 1.24662 1.11112 0.485504 2.05001 0.485504ZM4.60001 4.098C4.24792 4.098 3.96251 4.38342 3.96251 4.7355C3.96251 5.08758 4.24792 5.373 4.60001 5.373H8.00001C8.35209 5.373 8.63751 5.08758 8.63751 4.7355C8.63751 4.38342 8.35209 4.098 8.00001 4.098H4.60001ZM4.60001 7.498C4.24792 7.498 3.96251 7.78342 3.96251 8.1355C3.96251 8.48758 4.24792 8.773 4.60001 8.773H11.4C11.7521 8.773 12.0375 8.48758 12.0375 8.1355C12.0375 7.78342 11.7521 7.498 11.4 7.498H4.60001ZM4.60001 10.898C4.24792 10.898 3.96251 11.1834 3.96251 11.5355C3.96251 11.8876 4.24792 12.173 4.60001 12.173H11.4C11.7521 12.173 12.0375 11.8876 12.0375 11.5355C12.0375 11.1834 11.7521 10.898 11.4 10.898H4.60001Z" fill="#6D6D6D"/>
</svg>
