<?xml version="1.0" encoding="UTF-8"?>
<svg xmlns="http://www.w3.org/2000/svg" xmlns:xlink="http://www.w3.org/1999/xlink" viewBox="0 0 1688.16 1690.76">
  <defs>
    <radialGradient id="Degradado_sin_nombre_6" data-name="Degradado sin nombre 6" cx="844.08" cy="845.38" fx="844.08" fy="845.38" r="844.73" gradientUnits="userSpaceOnUse">
      <stop offset=".05" stop-color="#e5cc53"/>
      <stop offset=".97" stop-color="#fcde32" stop-opacity="0"/>
    </radialGradient>
    <radialGradient id="Degradado_sin_nombre_12" data-name="Degradado sin nombre 12" cx="922.83" cy="579.53" fx="922.83" fy="579.53" r="711.53" gradientUnits="userSpaceOnUse">
      <stop offset=".14" stop-color="#69c2f4"/>
      <stop offset="1" stop-color="#0071dd"/>
    </radialGradient>
    <radialGradient id="Degradado_sin_nombre_19" data-name="Degradado sin nombre 19" cx="872.16" cy="478.19" fx="872.16" fy="478.19" r="493.69" gradientUnits="userSpaceOnUse">
      <stop offset=".22" stop-color="#dcea75"/>
      <stop offset="1" stop-color="#bdea50"/>
    </radialGradient>
    <radialGradient id="Degradado_sin_nombre_17" data-name="Degradado sin nombre 17" cx="872.16" cy="478.19" fx="872.16" fy="478.19" r="493.69" gradientUnits="userSpaceOnUse">
      <stop offset=".22" stop-color="#dcea75"/>
      <stop offset="1" stop-color="#dcea75"/>
    </radialGradient>
    <radialGradient id="Degradado_sin_nombre_43" data-name="Degradado sin nombre 43" cx="516.67" cy="518.69" fx="516.67" fy="518.69" r="11.66" gradientUnits="userSpaceOnUse">
      <stop offset=".05" stop-color="#e5cc53"/>
      <stop offset=".73" stop-color="#c39d1f"/>
    </radialGradient>
    <linearGradient id="Degradado_sin_nombre_7" data-name="Degradado sin nombre 7" x1="462.08" y1="768.86" x2="462.08" y2="1181.35" gradientUnits="userSpaceOnUse">
      <stop offset=".05" stop-color="#e5cc53"/>
      <stop offset=".73" stop-color="#c39d1f"/>
    </linearGradient>
    <linearGradient id="Degradado_sin_nombre_7-2" data-name="Degradado sin nombre 7" x1="700.64" y1="768.86" x2="700.64" y2="1181.35" xlink:href="#Degradado_sin_nombre_7"/>
    <linearGradient id="Degradado_sin_nombre_7-3" data-name="Degradado sin nombre 7" x1="969.56" y1="768.86" x2="969.56" y2="1181.35" xlink:href="#Degradado_sin_nombre_7"/>
    <linearGradient id="Degradado_sin_nombre_7-4" data-name="Degradado sin nombre 7" x1="1223.33" y1="768.86" x2="1223.33" y2="1181.35" xlink:href="#Degradado_sin_nombre_7"/>
    <linearGradient id="Degradado_sin_nombre_7-5" data-name="Degradado sin nombre 7" x1="1467.45" y1="768.86" x2="1467.45" y2="1181.35" xlink:href="#Degradado_sin_nombre_7"/>
    <linearGradient id="Degradado_sin_nombre_7-6" data-name="Degradado sin nombre 7" x1="191.81" y1="768.86" x2="191.81" y2="1181.35" xlink:href="#Degradado_sin_nombre_7"/>
    <linearGradient id="Degradado_sin_nombre_7-7" data-name="Degradado sin nombre 7" x1="285.58" y1="712.46" x2="285.58" y2="1190.77" xlink:href="#Degradado_sin_nombre_7"/>
    <linearGradient id="Degradado_sin_nombre_7-8" data-name="Degradado sin nombre 7" x1="323.77" y1="723.38" x2="323.77" y2="1191.33" xlink:href="#Degradado_sin_nombre_7"/>
    <linearGradient id="Degradado_sin_nombre_7-9" data-name="Degradado sin nombre 7" x1="-775.07" y1="682.32" x2="-775.07" y2="1189.21" gradientTransform="translate(583.49) rotate(-180) scale(1 -1)" xlink:href="#Degradado_sin_nombre_7"/>
    <linearGradient id="Degradado_sin_nombre_7-10" data-name="Degradado sin nombre 7" x1="-736.88" y1="697.99" x2="-736.88" y2="1190.02" gradientTransform="translate(583.49) rotate(-180) scale(1 -1)" xlink:href="#Degradado_sin_nombre_7"/>
    <radialGradient id="radial-gradient" cx="166.31" cy="747.04" fx="166.31" fy="747.04" r="31.36" gradientUnits="userSpaceOnUse">
      <stop offset="0" stop-color="#fff"/>
      <stop offset="1" stop-color="#fff" stop-opacity="0"/>
    </radialGradient>
    <radialGradient id="radial-gradient-2" cx="230.01" cy="925.56" fx="230.01" fy="925.56" r="31.36" gradientTransform="translate(721.84 108.45) rotate(45)" xlink:href="#radial-gradient"/>
    <radialGradient id="radial-gradient-3" cx="795.19" cy="738.6" fx="795.19" fy="738.6" r="31.36" gradientTransform="translate(1255.89 -244.06) rotate(72.23)" xlink:href="#radial-gradient"/>
    <radialGradient id="radial-gradient-4" cx="512.63" cy="848.64" fx="512.63" fy="848.64" r="31.36" gradientTransform="translate(1220.79 154.74) rotate(76.72)" xlink:href="#radial-gradient"/>
    <radialGradient id="radial-gradient-5" cx="233.89" cy="780.44" fx="233.89" fy="780.44" r="19.8" xlink:href="#radial-gradient"/>
    <radialGradient id="radial-gradient-6" cx="891.61" cy="824.99" fx="891.61" fy="824.99" r="19.8" xlink:href="#radial-gradient"/>
    <radialGradient id="radial-gradient-7" cx="26.64" cy="625.76" fx="26.64" fy="625.76" r="12.02" xlink:href="#radial-gradient"/>
    <radialGradient id="radial-gradient-8" cx="57.22" cy="885.6" fx="57.22" fy="885.6" r="12.02" xlink:href="#radial-gradient"/>
    <radialGradient id="radial-gradient-9" cx="436.01" cy="805.73" fx="436.01" fy="805.73" r="12.02" xlink:href="#radial-gradient"/>
    <radialGradient id="radial-gradient-10" cx="891.61" cy="761.91" fx="891.61" fy="761.91" r="12.02" xlink:href="#radial-gradient"/>
    <radialGradient id="radial-gradient-11" cx="-191.71" cy="982.41" fx="-191.71" fy="982.41" r="31.36" gradientTransform="translate(853.94) rotate(-180) scale(1 -1)" xlink:href="#radial-gradient"/>
    <radialGradient id="radial-gradient-12" cx="-590.89" cy="580.7" fx="-590.89" fy="580.7" r="31.36" gradientTransform="translate(954.92 -87.4) rotate(-170.75) scale(1 -1)" xlink:href="#radial-gradient"/>
    <radialGradient id="radial-gradient-13" cx="167.84" cy="998.76" fx="167.84" fy="998.76" r="31.36" gradientTransform="translate(1672.48 769.11) rotate(-112.65) scale(1 -1)" xlink:href="#radial-gradient"/>
    <radialGradient id="radial-gradient-14" cx="-504.49" cy="825.33" fx="-504.49" fy="825.33" r="19.8" gradientTransform="translate(853.94) rotate(-180) scale(1 -1)" xlink:href="#radial-gradient"/>
    <radialGradient id="radial-gradient-15" cx="-691.01" cy="751.17" fx="-691.01" fy="751.17" r="19.8" gradientTransform="translate(853.94) rotate(-180) scale(1 -1)" xlink:href="#radial-gradient"/>
    <radialGradient id="radial-gradient-16" cx="-446.02" cy="660.95" fx="-446.02" fy="660.95" r="12.02" gradientTransform="translate(853.94) rotate(-180) scale(1 -1)" xlink:href="#radial-gradient"/>
    <radialGradient id="radial-gradient-17" cx="-387.48" cy="982.41" fx="-387.48" fy="982.41" r="12.02" gradientTransform="translate(853.94) rotate(-180) scale(1 -1)" xlink:href="#radial-gradient"/>
    <radialGradient id="radial-gradient-18" cx="-691.01" cy="688.09" fx="-691.01" fy="688.09" r="12.02" gradientTransform="translate(853.94) rotate(-180) scale(1 -1)" xlink:href="#radial-gradient"/>
    <radialGradient id="Gradiente_sem_nome_2" data-name="Gradiente sem nome 2" cx="1264.59" cy="176.56" fx="1264.59" fy="176.56" r="1.53" gradientUnits="userSpaceOnUse">
      <stop offset="0" stop-color="#fff"/>
      <stop offset="1" stop-color="#000"/>
    </radialGradient>
    <radialGradient id="Gradiente_sem_nome_2-2" data-name="Gradiente sem nome 2" cx="1264.54" cy="174.08" fx="1264.54" fy="174.08" r=".22" xlink:href="#Gradiente_sem_nome_2"/>
    <radialGradient id="Gradiente_sem_nome_2-3" data-name="Gradiente sem nome 2" cx="1264.67" cy="179.17" fx="1264.67" fy="179.17" r=".44" xlink:href="#Gradiente_sem_nome_2"/>
    <radialGradient id="Gradiente_sem_nome_2-4" data-name="Gradiente sem nome 2" cx="1558.27" cy="500.27" fx="1558.27" fy="500.27" r=".04" xlink:href="#Gradiente_sem_nome_2"/>
    <radialGradient id="Gradiente_sem_nome_2-5" data-name="Gradiente sem nome 2" cx="1559.65" cy="500.43" fx="1559.65" fy="500.43" r=".01" xlink:href="#Gradiente_sem_nome_2"/>
    <radialGradient id="Gradiente_sem_nome_2-6" data-name="Gradiente sem nome 2" cx="1696.92" cy="-30.88" fx="1696.92" fy="-30.88" r="415.51" xlink:href="#Gradiente_sem_nome_2"/>
    <radialGradient id="Gradiente_sem_nome_2-7" data-name="Gradiente sem nome 2" cx="1559.84" cy="500.44" fx="1559.84" fy="500.44" r=".05" xlink:href="#Gradiente_sem_nome_2"/>
    <radialGradient id="Gradiente_sem_nome_2-8" data-name="Gradiente sem nome 2" cx="1560.12" cy="500.47" fx="1560.12" fy="500.47" r=".15" xlink:href="#Gradiente_sem_nome_2"/>
    <radialGradient id="Gradiente_sem_nome_2-9" data-name="Gradiente sem nome 2" cx="1576.5" cy="501.89" fx="1576.5" fy="501.89" r=".05" xlink:href="#Gradiente_sem_nome_2"/>
    <radialGradient id="Gradiente_sem_nome_2-10" data-name="Gradiente sem nome 2" cx="1575.56" cy="501.86" fx="1575.56" fy="501.86" r="0" xlink:href="#Gradiente_sem_nome_2"/>
    <radialGradient id="Gradiente_sem_nome_2-11" data-name="Gradiente sem nome 2" cx="1572.73" cy="501.66" fx="1572.73" fy="501.66" r=".12" xlink:href="#Gradiente_sem_nome_2"/>
    <radialGradient id="Gradiente_sem_nome_2-12" data-name="Gradiente sem nome 2" cx="1572.93" cy="501.68" fx="1572.93" fy="501.68" r=".02" xlink:href="#Gradiente_sem_nome_2"/>
  </defs>
  <g style="isolation: isolate;">
    <g id="Calque_2" data-name="Calque 2">
      <g id="Lines">
        <path d="m842.79,1690.76h-6.81l-8.91-.35,15.73-376.1v-332.5c9.1,0,18.1-.86,26.75-2.55l136.19,695.74c-53.41,10.46-108.23,15.76-162.94,15.76Zm13.62-708.68l-3.07,79.89,3.34-79.88h-.27Zm-178.83,690.82c-52.99-10.47-104.65-25.53-153.54-44.78l259.72-659.66c9.37,3.69,19.87,6.7,31.19,8.93l-137.37,695.51Zm487.29-45.76l-270.21-655.43c8.14-3.36,16.03-7.56,23.43-12.5l393.18,589.93c-46.06,30.7-95.31,56.94-146.4,78Zm-789.65-75.53c-47.91-31.13-92.58-67.38-132.76-107.73l502.41-500.19c5.03,5.05,10.46,9.45,16.6,13.44l-386.25,594.49Zm1064.06-107.18l-500.24-502.36c6.41-6.39,12.21-13.41,17.24-20.88l588.25,395.69c-30.75,45.72-66.16,88.64-105.24,127.55Zm-1303.67-133.22c-30.07-46.55-55.68-96.59-76.1-148.72l660.11-258.58c3.19,8.13,7.05,15.73,11.47,22.58l-595.48,384.71Zm1487.53-140.37l-654.25-273.05c3.37-8.07,5.95-16.51,7.66-25.09l695.14,139.21c-10.88,54.33-27.22,107.8-48.55,158.93ZM14.66,1005.2c-9.73-52.51-14.66-106.31-14.66-159.9v-.52h708.95v.52c0,10.39.94,20.75,2.8,30.79L14.66,1005.2Zm1673.5-157.68l-708.94-1.89v-.52c-.02-9.09-.89-18.09-2.6-26.74l695.49-137.49c10.66,53.91,16.06,109.26,16.06,164.49v2.14Zm-976.35-33.28L14.99,683.64c10.09-53.85,25.31-106.76,45.24-157.27l659.49,260.14c-3.44,8.71-6.1,18.04-7.91,27.73Zm257.21-20.97c-3.38-8.14-7.6-16.02-12.55-23.43l589.22-394.24c30.78,46,57.11,95.2,78.26,146.24l-654.92,271.44Zm-237.8-29.23L136.76,377.73c31.07-47.81,67.15-92.36,107.25-132.41l501,501.6c-5.07,5.07-9.72,10.83-13.81,17.12Zm208.07-15.1c-6.4-6.4-13.43-12.19-20.91-17.2l394.6-588.98c45.78,30.67,88.76,66,127.75,105.01l-501.44,501.16Zm-177.6-15.43L377.04,137.98c46.48-30.02,96.59-55.62,148.94-76.08l258.1,660.3c-8.2,3.21-15.74,7.01-22.39,11.31Zm133.28-14.33c-8.07-3.35-16.52-5.91-25.1-7.61L1007.76,16.16c54.36,10.78,107.86,27.01,159.03,48.26l-271.83,654.76Zm-79.54-5.88L679.5,17.5c48.16-9.41,98.36-15.2,149.22-17.22l7.03-.28h7.32v361.55l13.78,347.12c-14.78.59-28.72,2.14-41.43,4.63Z" style="fill: url(#Degradado_sin_nombre_6);"/>
        <path d="m827.69,1376.72c-71.06,0-140-13.92-204.91-41.38-62.69-26.51-118.98-64.47-167.32-112.81-48.34-48.34-86.29-104.63-112.81-167.32-27.45-64.91-41.38-133.85-41.38-204.91s13.92-140,41.38-204.91c26.51-62.69,64.47-118.98,112.81-167.32,48.34-48.34,104.63-86.29,167.32-112.81,64.91-27.45,133.85-41.38,204.91-41.38s140,13.92,204.91,41.38c62.69,26.51,118.98,64.47,167.32,112.81,48.34,48.34,86.29,104.63,112.81,167.32,27.45,64.91,41.38,133.85,41.38,204.91s-13.92,140-41.38,204.91c-26.51,62.69-64.47,118.98-112.81,167.32-48.34,48.34-104.63,86.29-167.32,112.81-64.91,27.45-133.85,41.38-204.91,41.38Z" style="fill: url(#Degradado_sin_nombre_12);"/>
        <g>
          <g>
            <path d="m1009.18,981.83c-29.24,1.74-41.09-15.85-75.09-2.07-12.24-18.16-37.92.7-50.93-13.89,1.45-9.92-13.77-12.53-15.66-24.95-14.6-14.44-33.81-1.63-49.94-3.21-13.53-1.35-18.85-18.09-33.03-14.95-2.85-4.18-5.31-8.99-8.68-12.27-3.65,10.14-8.85-1.72-17.45,2.78-14.33,12.06-33.31,8.67-49.85,4.02-6.79,1.34-4.7,7.81-12.25,8.69-2.05-5.01,2.19-9.84-4.4-9.77-3.89,8.76-13.37,14.29-24.07,19.07-4.18,7.16-1.13,18.53-10.38,22.75-10.65-6.33-25.16-1.34-34.47,7.24-9.27-1.39-16.2-6.77-21.93-14.23-.33-11.24.02-22.08-1.69-34.1-10.73-8.87-25.85,4.96-40.9,3.49.97-15.27,7.39-27.36,4.55-44.84-6.72-5.25-15.55,2.63-22.11,5.82-.9,17.22-11.38,28.86-34.99,32.85-29.6-8.95-21.36-44.32-22.21-70.53,12.22-15.39,27.36-33.66,54.24-28.83,9.24-17.31,41.22-21.76,54.42-14.32,2.28,5.64,1.84,9.71,1.88,14.05,6.07,2.78,13.26,3.58,22.19,1.44-3.52-12.06-9.3-20.24-12.34-33.11,8.9-21.19,29.63-35.5,46.26-52.18-1.64-6.24-3.28-12.47-4.92-18.71,2.83-.75,5.67-1.49,8.51-2.24,4.52-18.48,18.68-31.33,38.3-40.99-5.99-23.17,21.04-27.08,35.36-38.4-.93,3.95-6.33,9.09-.27,12.8,10.08-14.26,38.35-17.93,41.34-36.35-9.93-.05-17.75,17.37-28.92,7.61-5.1-10.65,4.04-12.99,3.57-20.93-5.75-4.69-10.44,3.47-16.19.64,2.31-17.45,23.48-7.26,31.53-4.67,5-5.81-9.48-4.61-5.66-7.59,18.54-2.84,28.75-16.28,41.98-20.15-3.07,11.35-18.17,22.74-14.94,33.02,16.28-5.72,27.85-3.35,40.89-3.49,1.3-6.63-4.35-10.9-5.37-20.4-3.18-2.78-11.74,3.66-13.24-1.97.26-9.94,5.57-16.91,3.48-28.2-7.03-6.03-15.03-10.4-24.86-11.63-6.12-10.09-7.59-28.14-17.45-31.77-10.36,4.99-9.43,16.57-21.94,20.32-3.49-1.42-7.61-1.76-9.04-6.71-2.22-5.14,4.21-5.23.72-11.1-7.71.05-12.45-4.98-18.44-7.88-7.33,6.39-17.52,4.1-27.21,7.16-16.92,21.69,12,64.41-34.11,70.8-2,11.3,2.44,26.37-11.98,30.43-12.71-7.44-4.52-18.18-4.2-29.81-24.19,8.56-33.55-8.31-56.75-1.44.07-10.43-2.79-8.34-7.43-14.4,12.95-27.97,47.55-43.28,74.3-63.19.03,5.19-9.8,9.4-3.68,13.69,11.27-1.29,22.06-11.42,33.56-10.65-1.68-11.98-20.71-7.19-20.22-14.68,19.03,2.09,32.31-19.21,36.23-34.99,9-1.96,16.99-4.49,23.37-7.97,7.05,3.55,13.57,8,21.03,10.83-4.39,17.12-32.27,20.52-41.81,34.64,7.68,3.06,13.2-5.09,22.11-5.82,11.36,7.68,23.78,13.54,42.35,8.86,1.42-6.08-8.15-5.29-3.94-8.05,10.08,1.09,16.81-.85,16.91-11.73-1.55-7.21-9.74-3.05-10.38-11.81,6.82-8.62,11.51,3.94,18.8,2.33,6.99-5.03,15.4-9.25,15.13-18.52-6.59-5.99-19.53-1.1-25.69-7.8-2.91-5.53.81-7.2-1.44-12.35-12.33-2.69-28.3.82-35.52-10.65-33.52,9.9-80.25,12.33-74.56,41.44,2.65,3.68,12.09-4.28,12,4.12-3.58,7.99-10.54,14.02-18.54,19.42-5.4-3.02,2.64-4.57-.98-10.66-4.51-1.32-11.09.94-12.44-5.8.76-4.37-1.62-10.55-.19-14.49,6.88-6.09,23.7-6.34,22.83-16.93-19.23-5.95-25.23,14.32-35.99,22.2-.52-5.1,4.62-6.91,1.97-13.25-12.61.58-25.55,12.44-31.77,17.46,5.14,7.51,14.36,4.21,20.95,3.58-3.83,5.37-3.51,10.94,1.07,17.9-2.63,3.26-5.65,6.28-10.56,8.23-3.22-6.19,6.69-4.73,2.42-11.55-12.15-3.21-18.14,8.24-19.42,16.02-13.23,2.09-31.34,12.59-37.51,2.59,15.39.14,24.1-6.58,32.67-14.04-.63-7.15-8.26-2.29-9.48-8.41-1.09-8.79,9.25-10.92,9.58-18.89-10.51-3.24-16.24,12.64-24.98,15.67-8.76,3.02-29.45-3.84-33.75-3.85-11.02-.04-21.03,1.86-29.6,5.33-9.53,8.12-18.75,16.58-27.66,25.37-.42.94-.83,1.89-1.18,2.87,7.67,6.76,19.04-11.45,28.91-7.61-.89,6.68-.27,14.23-4.03,19.23-12.24-1.63-28.67,3.9-42.6,5.17-76.81,84.39-125.63,194.71-131.75,316.29,19.86,1.21,21.82,33.11,36,44.08,1.55,4.74-4.06,5.31-2.86,9.84,3.87,4.89,11.39,3.51,16.3,6.62,1.81,14.63,14.97,21.43,22.81,17.64-12.63-17.83-25.34-35.52-37.76-53.7,2.13-2.59,2.08-6.46,7.16-7.34,7.36,1.87,6.73,7.85,7.87,16.1,17.9,18.67,39.69,30.7,55.67,52.63,1.38,5.6-3.12,7.76.19,14.5,24.64,9.61,56.43,24.77,87.53,7.87,10.76-.24,15.07,10.7,27.03,12.9,17.74,3.24,41.13-8.11,46.71,18.6,15.8,4.18,29.58,11.82,47.09,13.07.87-6.69-1.22-15.1,8.31-16.74,10.62,7.3,18.07,20.02,21.39,39.83-6.28,16.01-20.38,27.46-16.02,49.67.67,6.26,7.12,2.6,7.79,8.86-.24,6.1-8.01,7.81-4.93,15.86,23.38,21.61,48.34,40.51,68.65,67.39,21.9,12.29,40.07.05,55.68,18.05,18.66,21.6,15.38,64.84,32.76,96.83,7.28,13.45,17.64,34.59,15.56,52.29,13.63,6.26,13.39,36.29,28.66,39.75.18-3.26-4.7-9.48-.99-10.65,3.45,3.14,6.42,7.06,7.42,14.39.59,3.2-5.47,2.58-5.9,5.2.16.21.28.38.42.59,20.5-.97,40.67-3.18,60.46-6.51,3.84-8.42,3.23-19.44,4.35-29.44-6.21.78-11.48-.05-14.13-5.38,5.65-1.97,14.13-2.3,16.55-6.17-1.03-5.41-4.42-12.19-2.33-15.76,35.92-3.87,26.11-34.31,9.31-40.61,8.26-1.83,13.65,1.26,23.01-2.43,11.75-6.61,5.19-20.88,8.94-35.1,4.22-15.94,20.96-27.55,5.38-48.68,7.19-14.52,19.95-25.77,40.53-32.47,8.99-21.81,11.41-49.61-.98-79.75,5.04-23.08,32.35-50.23,5.9-74.29Zm-476.43-483.75c-3.29,4.83-21.89,8.2-30.16,9.76-.45-1.7-.89-3.39-1.34-5.1,6.77-4.23,21.38-2.67,31.5-4.66Z" style="fill: url(#Degradado_sin_nombre_19);"/>
            <path d="m1270.89,600.5c-1.34.06-2.72.28-4.15.78-4.65,1.64-7.04,7.22-12.26,8.7-24.3,6.83-50.41-9.62-72.86,6.44-1.48,4.89,3.06,13.29,1.09,17.89-27.8.77-48.88-9.97-76.89-8.85,2.25-9.36,1.78-20.48-7.16-27.2-18.32,5.96-32.54,10.71-50.57,15.11-16.88,4.14-20.43,17.06-33.82,23.45-6.08,2.91-19.25,8.77-26.86,1.62,8.5-10.88,29.3-14.59,34.62-27.3-9.96-20.78,18.42-27.52,16.48-47.97,18.83,1.36,25.77-7.58,35.19-18.35,17.73,13.16,42.04,15.11,61.3,25.68,2.6,4.87-.11,6.66,1,10.65,8.74-1.15,10.42-13.34,3.21-15.4-.95-4.39,4.81-4.87,9.31-6.08-15.99-11.26-41.23-6.65-51.1-28.38,18.08-3.69,36.12,13.62,56.47,14.23,5.24,20.65,22.08,21.39,31.14,35.45,1.71-.45,3.41-.9,5.12-1.35,4.46-3.63,3.1-10.66,9.21-13.33-1.54-10.54-13.53-3.13-14.68-14.32,8.7-.26,9-12.89,15.64-9.57,13.25,10.21,18.82,33.56,41.72,27.19,4.14-.48,5.39-2.63,6.78-4.71-32.39-47.7-72.67-89.59-118.97-123.83-8.31,11.15-25.12,5.17-35.05,18.19-10.16-5.32-24.29,10.47-30.69.81,17.91-4.92,26.1-15.49,37.23-24.35-.13-5.52-4.24-4.22-4.38-9.75.72-1.96,2.04-3.57,3.5-5.1-17.18-10.94-35.07-20.87-53.57-29.72-.6,1.56-1.13,3.14-1.48,4.75-15.81,4.22-20.31,15.03-30.43,22.56,3.38,31.41,27.34,28.23,41.08,11.01,6.24,4.94,13.6,7.95,17.26,17.26-3.29,2.4-4.62,5.93-11,6.55-1.21-4.52-1.9-9.89-4.83-11.46-8.07,2.02-11.1,6.97-13.06,12.52,2.73,6.01,7.26,8.92,8.31,17.83-5.9,2.78-11.74,5.61-19.96,7.06-8.49,17.01-19.42,39.03-41.25,43.59-1.36,3.05.5,7.98-5.01,8.59-7.04,3.29-13.57-1.49-12.72,6.99,12.84.79,36.66,14.64,25.15,33.38-17.98,7.9-42.05,3.37-50.14,16.83,8.29,21.75-.5,31.56,10.84,48.06,11.31-4.57,19.87-4.46,23.1,4.82-.85,21.6-30.13,26.6-20.24,54.44-21.09,23.67-34.24,51.99-41.6,83.68,22.42,16.11,6.52,46.37,19.25,73.12,13.92,7.38,30.8,9.73,38.3,28.1,18.52,1.92,31.37,19.64,49.67,16.01,14.07-2.79,25.07-20.33,45.02-15.49,11.51-10.55,23.09-21.06,46.17-24.87,5.81,3.2,8.34,12.02,15.94,12.15,8.39-.87,11.18-4.98,18.27-6.6,24.41,4.75,8.35,31.25,15.93,46.71,3.28,6.7,16.8,10.48,24.54,17.19,17.17,14.96,22.92,33.69,33.9,52.89-2.38,17.8-13.08,35.55-3.57,55.5,5.38,11.27,22.29,18.89,30.24,32.04,6.62,10.92,8.77,25.08,15.57,35.1,42.14-74.09,66.23-159.8,66.23-251.13s-23.81-176.02-65.5-249.81Z" style="fill: url(#Degradado_sin_nombre_17);"/>
          </g>
          <g style="mix-blend-mode: multiply; opacity: .2;">
            <path d="m532.42,513.81c-3.29,4.83-21.89,8.2-30.16,9.76-.45-1.7-.89-3.39-1.34-5.1,6.77-4.23,21.38-2.67,31.5-4.66Z" style="fill: url(#Degradado_sin_nombre_43);"/>
          </g>
        </g>
        <path d="m827.69,341.6c280.94,0,508.7,227.75,508.7,508.7s-227.75,508.7-508.7,508.7-508.7-227.75-508.7-508.7,227.75-508.7,508.7-508.7m0-35.43c-73.44,0-144.7,14.39-211.81,42.77-64.8,27.41-122.99,66.64-172.95,116.6-49.96,49.96-89.19,108.15-116.6,172.95-28.38,67.11-42.77,138.37-42.77,211.81s14.39,144.7,42.77,211.81c27.41,64.8,66.64,122.99,116.6,172.95,49.96,49.96,108.15,89.19,172.95,116.6,67.11,28.38,138.37,42.78,211.81,42.78s144.7-14.39,211.81-42.78c64.8-27.41,122.99-66.64,172.95-116.6,49.96-49.96,89.19-108.15,116.6-172.95,28.38-67.11,42.78-138.37,42.78-211.81s-14.39-144.7-42.78-211.81c-27.41-64.8-66.64-122.99-116.6-172.95-49.96-49.96-108.15-89.19-172.95-116.6-67.11-28.38-138.37-42.77-211.81-42.77h0Z" style="fill: #473204;"/>
        <path d="m1611.3,907.29c-3.85-11.74-9.63-22.82-17.17-32.91-7.43-9.95-16.37-18.72-26.56-26.07-10.72-7.73-22.64-13.43-35.44-16.92-33.11-8.95-66.81-17.47-100.17-25.34-13.26-3.08-26.29-3.53-38.75-1.34-7.53,1.32-14.69,3.51-21.39,6.54l1.05-17.73-9.65-1.89,13.66-235.08-24.63-4.72c-82.08-15.71-165.81-28.08-248.85-36.76l-30.63-3.2-.57,18.91c-5.22-4.21-10.9-7.94-16.99-11.16l-1.51-1.5-4.94-1.65c-11.48-5.15-23.84-8.2-36.76-9.07-59.17-3.77-119.22-5.83-178.5-6.12l-28.73-.14v19.63c-7.01-4.87-14.68-8.87-22.91-11.94-12.19-4.54-25.31-6.62-39.04-6.19-34.82,1.21-70.14,3.01-105.01,5.36-13.46.95-26.33,4.29-38.25,9.94-11.62,5.5-21.94,12.78-30.67,21.61-1.06,1.07-2.09,2.17-3.11,3.29-4.41-5.61-10.19-10.38-17.21-14.19-6.67-3.62-14.59-6.15-23.56-7.5-8.14-1.23-17.65-1.19-28.3.11-67.58,8.52-135.76,19.51-202.66,32.65l-24.52,4.82,6.16,103.57,58.99,5.62.25,4.21c-9.61,8.19-18.12,15.5-25.95,22.28-8.13,6.99-14.37,13.69-19.07,20.47-5.13,7.39-8.76,14.78-10.79,21.97-2.18,7.7-2.89,15.19-2.12,22.27.75,6.9,2.63,13.17,5.58,18.65,1.67,3.09,10.72,15.38,14.89,20.99l.83,14.3c-.94-.5-1.89-.98-2.85-1.45-7.94-3.83-16.77-6.45-26.33-7.82l-2.8-41.29-32.62,7.43c-13.7,3.12-27.5,6.39-41.05,9.73v-.19s-17.2,4.43-17.2,4.43l-7.05,1.76v.06s-8.83,2.28-8.83,2.28c-13.85,3.57-27.88,7.33-41.7,11.15l-22.79,6.31,3.11,38.24c-2.28,1.39-4.51,2.87-6.67,4.41-10.38,7.4-19.44,16.22-26.93,26.23-7.55,10.09-13.34,21.16-17.2,32.91-4.12,12.53-5.64,25.31-4.51,38l6.72,75.72c1.18,13.32,5.16,25.44,11.83,36.03,6.56,10.41,15.16,18.9,25.55,25.22,9.41,5.73,20.01,9.5,31.52,11.22l2.82,34.71,87.57,35.1,24.92-6.9c11.44-3.17,23.16-6.3,34.83-9.31l13.41-3.46,13.64-3.36c11.51-2.84,23.29-5.63,35.01-8.3l21.68-4.94-2.1-31.04c.2-.11.41-.22.61-.33,3.94-2.16,9.56-6.04,13.16-8.59l12.63,7.51,24.4-4.75c14.39-2.8,29.01-5.49,43.44-8l22.72-3.96-2.55-49.11c6.94-1.13,13.96-2.25,20.96-3.35,30.3,23.32,60.77,47.5,90.61,71.9l18.75,15.34,16.63-17.62c10.33-10.94,20.85-21.95,31.26-32.74l17.84-18.48-25.86-53.16-19.59-16.14c-.66-.54-1.31-1.08-1.97-1.62,2.72-4.4,5.06-9.01,6.99-13.76,4.08-10.06,6.07-20.6,5.94-31.33,7.52,8.63,15.27,17.59,23.16,26.77l.83,46.75,22.41,52.56,24.89-1.47c14.77-.87,29.77-1.6,44.57-2.18l25.3-.99-.93-79.18c4.69-4.03,8.95-8.65,12.7-13.78,13.61-17.74,27.59-35.75,41.71-53.7l-.23,97.18h.37s-.11,48-.11,48l25.88.2c14.76.11,29.77.38,44.61.79l26.52.73.4-48.1,10.45.29v-.98c22.29,1,44.31,2.26,65.54,3.75,11.78.86,23.13-.45,33.73-3.88,10.43-3.38,19.87-8.5,28.06-15.2,8.44-6.91,15.27-15.34,20.32-25.06,4.87-9.39,7.67-19.6,8.34-30.41.25-.2.49-.4.74-.6,1.87-1.53,3.72-3.19,5.54-4.96,12.92,1.5,24.62,2.94,35.54,4.35l-5.89,138.73,23.34,3.31c14.73,2.09,29.62,4.35,44.26,6.72l24.6,3.99,51.1-44.25c.59,2.11,1.26,4.21,2.02,6.29,3.74,10.32,9.21,19.87,16.26,28.39,6.86,8.3,15.08,15.51,24.44,21.43,9.51,6.03,19.91,10.38,30.86,12.93,28.18,6.65,56.67,13.86,84.66,21.41,11.3,3.09,22.5,4.06,33.1,2.82,9.54-1.11,18.46-3.8,26.52-8,.7-.31,4.11-1.8,8.38-3.65,36.31-15.79,74.34-32.47,81.16-36.51,1.29-.77,2.59-1.58,3.85-2.43,8.83-5.96,16.25-13.66,22.05-22.88,6.65-10.58,10.62-22.69,11.8-35.99l6.72-75.72c1.12-12.66-.39-25.43-4.5-37.97Z" style="fill: #473204;"/>
        <g>
          <path d="m311.87,770.43c2.03,2.58,4.99,4.79,8.79,6.56,3.69,1.72,8.38,2.82,13.9,3.27,5.39.44,11.96-.04,19.5-1.42,65.57-11.76,131.38-21.25,197.61-28.5-.51-16-1.02-32-1.53-48-53.64,5.87-107.02,13.17-160.26,21.92,44.89-37.62,90.48-74.33,136.83-110.14.03-.02.05-.04.08-.06,6.22-4.92,10.86-9.45,14.17-13.89,3.33-4.47,5.68-8.75,6.97-12.71,1.31-4.04,1.84-7.84,1.57-11.29-.26-3.29-.92-6.05-1.98-8.4-.76-2.02-1.99-4.2-3.76-6.64-2-2.76-4.97-5.23-8.83-7.33-3.72-2.02-8.5-3.49-14.18-4.35-5.55-.84-12.43-.78-20.44.21-67.3,8.49-134.16,19.26-200.72,32.34.95,15.93,1.9,31.87,2.84,47.8,53.68-10.53,107.54-19.61,161.71-27.23-46.26,36.95-91.73,74.79-136.49,113.54-6.28,5.4-10.93,10.35-14.22,15.09-3.32,4.79-5.6,9.32-6.76,13.45-1.17,4.15-1.58,7.99-1.21,11.4.37,3.39,1.2,6.08,2.32,8.15,1.04,1.93,2.41,4.09,4.1,6.24Z" style="fill: #fff;"/>
          <path d="m593.82,727.72c6.57,5.17,14.26,9.07,22.84,11.63,8.62,2.57,17.88,3.53,27.53,2.85,33.85-2.28,67.7-4,101.6-5.18,9.68-.31,18.85-2.21,27.27-5.66,8.37-3.43,15.86-8.12,22.25-13.93,6.41-5.83,11.55-12.76,15.26-20.62,3.72-7.89,5.61-16.39,5.59-25.26-.04-25.57-.08-51.15-.11-76.72-.01-8.87-1.94-17.36-5.75-25.2-3.78-7.78-9.02-14.66-15.59-20.44-6.55-5.77-14.23-10.33-22.82-13.53-8.69-3.23-18.14-4.72-28.06-4.41-34.7,1.21-69.35,2.97-103.99,5.31-9.9.7-19.33,3.14-28.02,7.26-8.62,4.08-16.21,9.43-22.57,15.87-6.38,6.45-11.39,13.87-14.91,22-3.55,8.21-5.22,16.87-4.96,25.75.75,25.54,1.5,51.07,2.24,76.61.26,8.87,2.41,17.16,6.35,24.65,3.93,7.46,9.26,13.86,15.84,19.03Zm30.56-48.29c-.59-25.55-1.19-51.1-1.78-76.65-.11-4.59,1.58-8.6,5.16-12.26,3.54-3.61,7.72-5.54,12.77-5.9,34.55-2.33,69.1-4.09,103.71-5.3,5.05-.16,9.29,1.34,12.94,4.58,3.69,3.28,5.51,7.12,5.54,11.71.19,25.57.38,51.14.57,76.71.03,4.59-1.7,8.51-5.3,11.99-3.56,3.44-7.71,5.18-12.7,5.34-34.18,1.19-68.3,2.93-102.42,5.23-4.99.35-9.18-.97-12.84-4.04-3.69-3.1-5.54-6.83-5.65-11.43Z" style="fill: #fff;"/>
          <path d="m886.81,578.59c40.74,1,81.4,2.8,122.07,5.39,5.09.34,9.36,2.28,13.04,5.93s5.42,7.64,5.31,12.2c-1.05,46.93-2.09,93.86-3.14,140.79,17.47,1.29,34.93,2.76,52.38,4.4,1.33-46.91,2.65-93.81,3.98-140.72.25-8.87-1.43-17.53-5-25.73-3.53-8.11-8.48-15.48-14.7-21.88-6.26-6.43-13.82-11.77-22.48-15.84,0,0,0,0,0,0-8.71-4.08-18.15-6.5-28.07-7.17-58.91-3.75-117.8-5.77-176.82-6.06-.03,68.6-.06,137.2-.09,205.8,17.5.03,35,.23,52.5.6.34-52.57.68-105.14,1.02-157.71Z" style="fill: #fff;"/>
          <path d="m1337.73,737.49c-62.87-12.04-125.99-22.01-189.52-29.93.52-14.33.78-21.5,1.3-35.83,63.78,7.95,127.16,17.96,190.29,30.05l2.78-47.81c-63.47-12.16-127.2-22.22-191.33-30.21.38-10.52.57-15.78.96-26.3,64.32,8.01,128.23,18.11,191.9,30.3.93-15.94,1.85-31.88,2.78-47.81-81.68-15.63-163.73-27.76-246.44-36.4-2.08,68.5-4.15,136.99-6.23,205.49,80.81,8.45,160.98,20.29,240.78,35.57.91-15.7,1.82-31.4,2.74-47.1Z" style="fill: #fff;"/>
          <path d="m530.9,927.52c8.05-4.46,15.09-10.01,20.9-16.53,5.78-6.48,10.36-13.82,13.6-21.83,3.27-8.08,4.81-16.54,4.55-25.15-.24-7.84-.35-11.76-.59-19.6-.27-8.84-2.37-17.18-6.29-24.78-3.89-7.55-9.19-14.02-15.73-19.19-6.51-5.15-14.1-9.01-22.53-11.41-8.52-2.43-17.73-3.05-27.34-1.83-57.1,7.46-113.86,16.59-170.42,27.38,3.95,68.22,7.9,136.44,11.85,204.66,16.55-3.22,33.13-6.27,49.75-9.17-.97-18.59-1.93-37.18-2.9-55.77,20.79-3.55,41.6-6.91,62.45-10.09,38.25,29.26,75.99,59.13,113.26,89.61,11.8-12.5,23.68-24.93,35.62-37.3-26.01-21.44-52.24-42.59-78.7-63.46,4.31-1.48,8.49-3.33,12.51-5.56Zm-150.4-74.45c39.5-6.75,79.08-12.71,118.82-17.9,4.87-.62,9.01.49,12.63,3.39,3.67,2.94,5.53,6.73,5.71,11.55.28,7.83.42,11.75.71,19.58.17,4.59-1.41,8.66-4.81,12.47-3.36,3.76-7.34,5.88-12.19,6.49-39.49,5.15-78.83,11.08-118.08,17.79-.92-17.79-1.85-35.58-2.77-53.37Z" style="fill: url(#Degradado_sin_nombre_7);"/>
          <path d="m707.1,852.46c-1.01,1.33-2.09,2.33-3.29,3.06-1.27.77-1.84.84-1.84.84,0,0-4.49-1.78-6.08-3.44-22.15-26.43-44.51-52.67-67.1-78.73-21.69,1.73-43.35,3.66-65.01,5.79,30.82,34.33,61.22,69.01,91.23,104.05.08.09.12.13.2.22,3.64,3.85,7.56,7.24,11.63,10.09,3.12,2.18,6.54,4.08,10.2,5.65.45,25.48.9,50.96,1.36,76.43,17.01-1,34.02-1.83,51.05-2.5-.3-25.49-.6-50.98-.9-76.47,7.99-4.33,14.84-10.39,20.42-18.09,29.09-37.94,58.6-75.54,88.53-112.82-21.61,0-43.21.2-64.81.6-22.09,28.27-43.94,56.7-65.58,85.32Z" style="fill: url(#Degradado_sin_nombre_7-2);"/>
          <path d="m1070.51,795.65c-6.17-6.43-13.48-11.77-21.73-15.85-8.33-4.12-17.46-6.58-27.11-7.28-57.24-4-114.48-6.32-171.86-6.97-.16,68.6-.32,137.2-.48,205.8,17.03.13,34.06.43,51.09.91.16-18.67.31-37.34.47-56.02,39.17,1.21,78.26,3.19,117.36,5.92,9.51.7,18.58-.32,26.95-3.03,8.28-2.68,15.75-6.71,22.19-11.98,6.44-5.27,11.66-11.71,15.52-19.15,3.89-7.5,6.01-15.79,6.27-24.65.24-7.98.36-11.97.6-19.95.27-8.85-1.34-17.52-4.79-25.74-3.42-8.15-8.29-15.56-14.48-22Zm-51.14,78.47c-39.34-2.76-78.67-4.74-118.09-5.96.15-17.87.3-35.74.45-53.61,39.66,1.23,79.24,3.23,118.82,6,4.91.36,8.98,2.3,12.42,5.91,3.48,3.66,5.12,7.67,5.01,12.26-.19,7.99-.29,11.98-.48,19.96-.12,4.8-1.92,8.57-5.49,11.55-3.58,2.98-7.72,4.25-12.64,3.89Z" style="fill: url(#Degradado_sin_nombre_7-3);"/>
          <path d="m1103.81,828.71c30.92,3.37,61.76,7.18,92.57,11.44-2.23,52.42-4.45,104.83-6.68,157.25,16.92,2.4,33.81,4.97,50.68,7.7,2.54-52.37,5.08-104.74,7.61-157.11,30.76,5.09,61.42,10.63,92.02,16.61.94-15.93,1.89-31.87,2.83-47.8-78.71-15.37-157.8-27.4-237.52-36.1-.51,16-1.01,32-1.52,48Z" style="fill: url(#Degradado_sin_nombre_7-4);"/>
          <path d="m1584.13,916.2c-2.88-8.77-7.22-17.09-12.9-24.7-5.67-7.59-12.53-14.33-20.37-19.99-7.93-5.72-16.74-9.93-26.17-12.51-32.94-8.9-65.97-17.26-99.18-25.09-9.48-2.2-18.68-2.55-27.32-1.03-8.57,1.51-16.28,4.57-22.92,9.06-6.65,4.5-12.09,10.35-16.16,17.35-4.11,7.06-6.47,15.12-7.01,23.95-1.54,25.42-3.09,50.83-4.63,76.25-.54,8.83.78,17.64,3.88,26.18,3.09,8.51,7.61,16.38,13.42,23.41,5.8,7.02,12.78,13.12,20.73,18.16,7.98,5.06,16.7,8.7,25.94,10.85,32.42,7.66,64.68,15.82,96.84,24.49,9.19,2.51,18.04,3.31,26.29,2.35,8.21-.95,15.71-3.4,22.26-7.27,6.57-3.89,12.04-9.23,16.24-15.91,4.21-6.7,6.75-14.54,7.53-23.3,2.24-25.24,4.48-50.48,6.72-75.72.78-8.76-.29-17.69-3.19-26.53Zm-47.29,11.8c-2.09,25.28-4.18,50.57-6.27,75.85-.38,4.54-2.36,7.9-6.08,10.29-3.67,2.36-7.75,2.87-12.49,1.57-32.42-8.76-64.95-16.99-97.64-24.69-4.78-1.11-8.65-3.64-11.85-7.73-3.24-4.13-4.67-8.36-4.37-12.93,1.7-25.38,3.39-50.77,5.09-76.15.3-4.56,2.27-8.03,6-10.58,3.69-2.53,7.84-3.22,12.67-2.09,33.11,7.8,66.06,16.13,98.9,25.01,4.8,1.31,8.68,4.03,11.84,8.29,3.21,4.31,4.58,8.63,4.2,13.17Z" style="fill: url(#Degradado_sin_nombre_7-5);"/>
          <path d="m308.18,902.98c-.81-13.32-1.21-19.98-2.02-33.29-.45-7.4-2.82-13.96-7.06-19.49-4.09-5.34-9.49-9.66-16.04-12.82-6.43-3.1-13.99-5.06-22.46-5.78-5.82-.5-11.92-.29-18.19.58-.93-13.74-1.4-20.61-2.33-34.35-13.83,3.15-27.64,6.43-41.42,9.82.99,13.57,1.48,20.36,2.47,33.93-12.73,3.13-19.09,4.73-31.8,8.02-1.04-13.56-1.55-20.34-2.59-33.9-13.77,3.55-27.51,7.23-41.21,11.02,1.11,13.65,1.66,20.47,2.77,34.12-7.13,2.57-13.9,6.11-20.16,10.57-7.99,5.7-14.93,12.46-20.63,20.07-5.69,7.61-10.04,15.93-12.93,24.71-2.9,8.83-3.97,17.76-3.19,26.54,2.24,25.24,4.48,50.48,6.72,75.72.78,8.77,3.32,16.61,7.54,23.3,4.19,6.65,9.65,12.04,16.22,16.04,6.59,4.01,14.16,6.55,22.51,7.59,6.55.81,13.42.53,20.48-.82.99,12.23,1.49,18.35,2.49,30.58,13.28-3.68,26.59-7.24,39.93-10.68-.93-12.14-1.39-18.21-2.32-30.35,12.41-3.21,18.62-4.78,31.05-7.83.88,12.15,1.32,18.23,2.21,30.38,13.35-3.29,26.73-6.46,40.13-9.52-.84-12.32-1.25-18.48-2.09-30.8,6.06-1.95,11.86-4.42,17.31-7.41,7.94-4.35,14.89-9.44,20.64-15.13,5.85-5.79,10.49-12.2,13.77-19.06,3.4-7.1,4.9-14.45,4.45-21.86-.81-13.32-1.21-19.98-2.02-33.29-16.97,3.46-33.9,7.09-50.79,10.9.84,12.63,1.26,18.94,2.11,31.57-.53.57-1.45,1.5-3.01,2.88-1.93,1.71-6,4.13-14.38,6.08-32.69,7.7-65.21,15.93-97.63,24.69-4.74,1.3-8.83.78-12.5-1.57-3.7-2.38-5.7-5.74-6.07-10.29-2.09-25.28-4.18-50.57-6.27-75.85-.38-4.54.99-8.85,4.2-13.16,3.17-4.26,7.04-6.98,11.84-8.29,32.84-8.87,65.78-17.2,98.89-25,8.48-1.97,12.8-1.43,14.93-.64,1.72.64,2.74,1.13,3.34,1.45.84,12.63,1.26,18.94,2.11,31.57,16.97-3.82,33.97-7.46,51.01-10.94Z" style="fill: url(#Degradado_sin_nombre_7-6);"/>
        </g>
        <path d="m121.32,1128.16s127.75,87.7,340.76,115.7c3.08.4-70.01-61.06-116.33-156.43-1.58-3.25-224.43,40.72-224.43,40.72Z" style="fill: #473204;"/>
        <path d="m275.71,662.31s16.9,26.09,36.79,37.89l7.15-37.89h-43.93Z" style="fill: #473204;"/>
        <path d="m126.94,866.31s-37.46,16.33-45.34,49.78c-6.57,27.92,1.9,72.51,1.9,72.51,0,0,6.48-50.67,30.1-75.05,11.21-11.57,47.7-20.38,75.14-27.43,30.37-7.8,51.6-13.23,58.2-12.95,12.57.53,14.1,9.47,14.1,9.47l37.34-22.04s-12.97-29.78-62.86-22.48l-3.05-34.29-30.48,6.86,2.48,34.68-42.55,9.97-2.6-33.61-30.86,8,3.05,35.05-4.57,1.52Z" style="fill: #fcde32;"/>
        <path d="m333.05,822.12l5.33,72,34.29-25.91v-20.19l127.63-20.19s17.52.38,20.57,11.05l3.05,10.67,30.3-25.36s-13.54-30.26-51.63-28.74c-38.1,1.52-169.53,26.67-169.53,26.67Z" style="fill: #fcde32;"/>
        <polygon points="573.54 784.67 636.68 852.21 672.11 835.01 627.54 780.43 573.54 784.67" style="fill: #fcde32;"/>
        <polygon points="774.21 772.59 736.12 822.12 797.83 810.31 827.69 772.59 774.21 772.59" style="fill: #fcde32;"/>
        <path d="m854.98,771.57l1.27,72.79,39.37-16.41-.49-20.18,127.23,6.77s16,3.5,18.29,14.17,1.78,15.65,1.78,15.65l43.43-15.9s-12.19-33.65-39.88-43.88c-27.68-10.22-59.43-10.22-59.43-10.22l-131.56-2.79Z" style="fill: #fcde32;"/>
        <path d="m1110.74,784.59v38.29l91.18,11.68-4.32,74.92,43.94-16.58,3.17-52.88,91.67,17.52,2.43-38.48s-134.24-27.06-228.08-34.48Z" style="fill: #fcde32;"/>
        <path d="m1381.86,843.83c-18.83,12.35-24.26,24.98-25.27,37.19s-2.49,33.04-2.49,33.04l43.99-11.18,2.25-16.76s6.1-10.67,15.24-9.91c9.14.76,112.58,28.19,112.58,28.19,0,0,12.38,6.48,12.19,16.76-.19,10.29-1.9,19.62-1.9,19.62l44.57-14.1s-5.83-28.02-23.43-44.38c-17.6-16.37-33.72-20.95-33.72-20.95l-108.58-25.91s-20.84-1.19-35.43,8.38Z" style="fill: #fcde32;"/>
        <path d="m169.99,1130.7s141.52,59.23,231.17,86.16c0,0-117.6-43.33-193.62-94.55l-37.55,8.39Z" style="fill: url(#Degradado_sin_nombre_7-7);"/>
        <path d="m236.37,1115.35s113.45,72.18,174.79,101.51c0,0-92.17-58.78-145.55-109.78l-29.24,8.26Z" style="fill: url(#Degradado_sin_nombre_7-8);"/>
        <path d="m1581.68,1074.98s-177.32,140.88-390.34,168.88c-3.08.4,70.01-61.06,116.33-156.43,1.58-3.25,274.01-12.45,274.01-12.45Z" style="fill: #473204;"/>
        <path d="m1464.86,1125.05s-122.95,64.88-212.6,91.81c0,0,99.03-48.98,175.05-100.19l37.55,8.39Z" style="fill: url(#Degradado_sin_nombre_7-9);"/>
        <path d="m1398.48,1109.7s-94.88,77.83-156.22,107.16c0,0,73.6-64.43,126.98-115.43l29.24,8.26Z" style="fill: url(#Degradado_sin_nombre_7-10);"/>
        <path d="m893.93,440.01c0-.14-.29-14.06-3.34-20.78-2.01-4.43-4.79-8.33-8.24-11.61-3.44-3.26-7.48-5.82-12.01-7.62-4.61-1.83-9.52-2.72-14.55-2.63l-52.44.9-.85,29.63v.06s.2,12.62.2,12.62c-.91,1.46-1.71,2.97-2.39,4.49-1,2.24-1.74,4.59-2.23,7.01l-41.25.71-.46-28.37-7.82-29.95-43.35.75,1.61,100.18,13.43,15.84,94.13,21.81-.09-27.32c1.18.62,2.4,1.18,3.65,1.67,3.77,1.47,7.8,2.22,11.96,2.22l51.03-.88,13.85-16.54-.84-52.19Z" style="fill: #473204;"/>
        <g>
          <polygon points="735.32 408.7 719.43 408.97 720.61 482.76 802.04 481.35 801.79 466.01 736.26 467.14 735.32 408.7" style="fill: #fff;"/>
          <path d="m877.85,425.03c-1.26-2.78-2.99-5.21-5.13-7.24-2.14-2.03-4.68-3.63-7.55-4.78-2.88-1.15-5.95-1.7-9.13-1.64l-38.57.66.25,15.61,38.57-.66c1.82-.03,3.31.37,4.56,1.22.8.54,2.29,1.59,2.06,8.32l-28.58.49c-3.18.05-6.21.69-9,1.89-2.79,1.2-5.25,2.82-7.32,4.83-2.08,2.02-3.73,4.39-4.9,7.02-1.18,2.66-1.76,5.56-1.71,8.61s.72,5.93,1.99,8.54c1.26,2.6,2.99,4.89,5.14,6.8,2.14,1.89,4.65,3.41,7.46,4.5,2.83,1.1,5.87,1.63,9.06,1.58l45.54-.78-.64-39.77c-.05-3.12-.82-12.42-2.08-15.2Zm-48.49,29.59c1.47-1.31,3.18-1.96,5.22-2l29.64-.51.2,12.56-29.64.51c-2.06.04-3.79-.54-5.3-1.76-1.45-1.17-2.17-2.56-2.2-4.26-.03-1.79.65-3.28,2.07-4.54Z" style="fill: #fff;"/>
        </g>
        <g>
          <g>
            <path d="m166.63,723.73l3.56,12.46c.84,3.7,3.52,6.71,7.09,7.98l8.08,2.87-8.08,2.87c-3.57,1.27-6.25,4.28-7.09,7.98l-3.56,12.46-3.54-12.36c-.86-3.75-3.6-6.79-7.24-8.03l-8.59-2.92,8.59-2.92c3.64-1.24,6.38-4.28,7.24-8.03l3.54-12.36Z" style="fill: #ebe7df;"/>
            <circle cx="166.31" cy="747.04" r="31.36" style="fill: url(#radial-gradient); mix-blend-mode: overlay;"/>
          </g>
          <g>
            <path d="m230.33,902.25l3.56,12.46c.84,3.7,3.52,6.71,7.09,7.98l8.08,2.87-8.08,2.87c-3.57,1.27-6.25,4.28-7.09,7.98l-3.56,12.46-3.54-12.36c-.86-3.75-3.6-6.79-7.24-8.03l-8.59-2.92,8.59-2.92c3.64-1.24,6.38-4.28,7.24-8.03l3.54-12.36Z" style="fill: #ebe7df;"/>
            <circle cx="230.01" cy="925.56" r="31.36" transform="translate(-587.1 433.73) rotate(-45)" style="fill: url(#radial-gradient-2); mix-blend-mode: overlay;"/>
          </g>
          <g>
            <path d="m795.51,715.29l3.56,12.46c.84,3.7,3.52,6.71,7.09,7.98l8.08,2.87-8.08,2.87c-3.57,1.27-6.25,4.28-7.09,7.98l-3.56,12.46-3.54-12.36c-.86-3.75-3.6-6.79-7.24-8.03l-8.59-2.92,8.59-2.92c3.64-1.24,6.38-4.28,7.24-8.03l3.54-12.36Z" style="fill: #ebe7df;"/>
            <circle cx="795.19" cy="738.6" r="31.36" transform="translate(-150.85 1270.46) rotate(-72.23)" style="fill: url(#radial-gradient-3); mix-blend-mode: overlay;"/>
          </g>
          <g>
            <path d="m512.95,825.33l3.56,12.46c.84,3.7,3.52,6.71,7.09,7.98l8.08,2.87-8.08,2.87c-3.57,1.27-6.25,4.28-7.09,7.98l-3.56,12.46-3.54-12.36c-.86-3.75-3.6-6.79-7.24-8.03l-8.59-2.92,8.59-2.92c3.64-1.24,6.38-4.28,7.24-8.03l3.54-12.36Z" style="fill: #ebe7df;"/>
            <circle cx="512.63" cy="848.64" r="31.36" transform="translate(-431.08 1152.58) rotate(-76.72)" style="fill: url(#radial-gradient-4); mix-blend-mode: overlay;"/>
          </g>
          <g>
            <path d="m234.1,765.72l2.25,7.86c.53,2.33,2.22,4.23,4.48,5.04l5.1,1.81-5.1,1.81c-2.26.8-3.94,2.7-4.48,5.04l-2.25,7.86-2.23-7.8c-.54-2.37-2.27-4.29-4.57-5.07l-5.42-1.84,5.42-1.84c2.3-.78,4.03-2.7,4.57-5.07l2.23-7.8Z" style="fill: #ebe7df;"/>
            <path d="m253.69,780.44c0,10.93-8.86,19.8-19.8,19.8s-19.8-8.86-19.8-19.8,8.86-19.8,19.8-19.8,19.8,8.86,19.8,19.8Z" style="fill: url(#radial-gradient-5); mix-blend-mode: overlay;"/>
          </g>
          <g>
            <path d="m891.81,810.27l2.25,7.86c.53,2.33,2.22,4.23,4.48,5.04l5.1,1.81-5.1,1.81c-2.26.8-3.94,2.7-4.48,5.04l-2.25,7.86-2.23-7.8c-.54-2.37-2.27-4.29-4.57-5.07l-5.42-1.84,5.42-1.84c2.3-.78,4.03-2.7,4.57-5.07l2.23-7.8Z" style="fill: #ebe7df;"/>
            <path d="m911.41,824.99c0,10.93-8.86,19.8-19.8,19.8s-19.8-8.86-19.8-19.8,8.86-19.8,19.8-19.8,19.8,8.86,19.8,19.8Z" style="fill: url(#radial-gradient-6); mix-blend-mode: overlay;"/>
          </g>
          <g>
            <path d="m26.76,616.82l1.36,4.78c.32,1.42,1.35,2.57,2.72,3.06l3.1,1.1-3.1,1.1c-1.37.49-2.4,1.64-2.72,3.06l-1.36,4.78-1.36-4.74c-.33-1.44-1.38-2.6-2.78-3.08l-3.29-1.12,3.29-1.12c1.4-.47,2.45-1.64,2.78-3.08l1.36-4.74Z" style="fill: #ebe7df;"/>
            <circle cx="26.64" cy="625.76" r="12.02" style="fill: url(#radial-gradient-7); mix-blend-mode: overlay;"/>
          </g>
          <g>
            <path d="m57.34,876.66l1.37,4.78c.32,1.42,1.35,2.57,2.72,3.06l3.1,1.1-3.1,1.1c-1.37.49-2.4,1.64-2.72,3.06l-1.37,4.78-1.36-4.74c-.33-1.44-1.38-2.6-2.78-3.08l-3.3-1.12,3.3-1.12c1.4-.47,2.45-1.64,2.78-3.08l1.36-4.74Z" style="fill: #ebe7df;"/>
            <circle cx="57.22" cy="885.6" r="12.02" style="fill: url(#radial-gradient-8); mix-blend-mode: overlay;"/>
          </g>
          <g>
            <path d="m436.13,796.8l1.36,4.78c.32,1.42,1.35,2.57,2.72,3.06l3.1,1.1-3.1,1.1c-1.37.49-2.4,1.64-2.72,3.06l-1.36,4.78-1.36-4.74c-.33-1.44-1.38-2.6-2.78-3.08l-3.29-1.12,3.29-1.12c1.4-.47,2.45-1.64,2.78-3.08l1.36-4.74Z" style="fill: #ebe7df;"/>
            <circle cx="436.01" cy="805.73" r="12.02" style="fill: url(#radial-gradient-9); mix-blend-mode: overlay;"/>
          </g>
          <g>
            <path d="m891.74,752.98l1.36,4.78c.32,1.42,1.35,2.57,2.72,3.06l3.1,1.1-3.1,1.1c-1.37.49-2.4,1.64-2.72,3.06l-1.36,4.78-1.36-4.74c-.33-1.44-1.38-2.6-2.78-3.08l-3.29-1.12,3.29-1.12c1.4-.47,2.45-1.64,2.78-3.08l1.36-4.74Z" style="fill: #ebe7df;"/>
            <circle cx="891.61" cy="761.91" r="12.02" style="fill: url(#radial-gradient-10); mix-blend-mode: overlay;"/>
          </g>
          <g>
            <g>
              <path d="m1045.32,959.1l-3.56,12.46c-.84,3.7-3.52,6.71-7.09,7.98l-8.08,2.87,8.08,2.87c3.57,1.27,6.25,4.28,7.09,7.98l3.56,12.46,3.54-12.36c.86-3.75,3.6-6.79,7.24-8.03l8.59-2.92-8.59-2.92c-3.64-1.24-6.38-4.28-7.24-8.03l-3.54-12.36Z" style="fill: #ebe7df;"/>
              <circle cx="1045.64" cy="982.41" r="31.36" style="fill: url(#radial-gradient-11); mix-blend-mode: overlay;"/>
            </g>
            <g>
              <path d="m1444.51,557.39l-3.56,12.46c-.84,3.7-3.52,6.71-7.09,7.98l-8.08,2.87,8.08,2.87c3.57,1.27,6.25,4.28,7.09,7.98l3.56,12.46,3.54-12.36c.86-3.75,3.6-6.79,7.24-8.03l8.59-2.92-8.59-2.92c-3.64-1.24-6.38-4.28-7.24-8.03l-3.54-12.36Z" style="fill: #ebe7df;"/>
              <circle cx="1444.83" cy="580.7" r="31.36" transform="translate(-74.53 239.7) rotate(-9.25)" style="fill: url(#radial-gradient-12); mix-blend-mode: overlay;"/>
            </g>
            <g>
              <path d="m685.78,975.45l-3.56,12.46c-.84,3.7-3.52,6.71-7.09,7.98l-8.08,2.87,8.08,2.87c3.57,1.27,6.25,4.28,7.09,7.98l3.56,12.46,3.54-12.36c.86-3.75,3.6-6.79,7.24-8.03l8.59-2.92-8.59-2.92c-3.64-1.24-6.38-4.28-7.24-8.03l-3.54-12.36Z" style="fill: #ebe7df;"/>
              <circle cx="686.1" cy="998.76" r="31.36" transform="translate(-499.82 1247.42) rotate(-67.35)" style="fill: url(#radial-gradient-13); mix-blend-mode: overlay;"/>
            </g>
            <g>
              <path d="m1358.23,810.62l-2.25,7.86c-.53,2.33-2.22,4.23-4.48,5.04l-5.1,1.81,5.1,1.81c2.26.8,3.94,2.7,4.48,5.04l2.25,7.86,2.23-7.8c.54-2.37,2.27-4.29,4.57-5.07l5.42-1.84-5.42-1.84c-2.3-.78-4.03-2.7-4.57-5.07l-2.23-7.8Z" style="fill: #ebe7df;"/>
              <path d="m1338.64,825.33c0,10.93,8.86,19.8,19.8,19.8s19.8-8.86,19.8-19.8-8.86-19.8-19.8-19.8-19.8,8.86-19.8,19.8Z" style="fill: url(#radial-gradient-14); mix-blend-mode: overlay;"/>
            </g>
            <g>
              <path d="m1544.74,736.46l-2.25,7.86c-.53,2.33-2.22,4.23-4.48,5.04l-5.1,1.81,5.1,1.81c2.26.8,3.94,2.7,4.48,5.04l2.25,7.86,2.23-7.8c.54-2.37,2.27-4.29,4.57-5.07l5.42-1.84-5.42-1.84c-2.3-.78-4.03-2.7-4.57-5.07l-2.23-7.8Z" style="fill: #ebe7df;"/>
              <path d="m1525.15,751.17c0,10.93,8.86,19.8,19.8,19.8s19.8-8.86,19.8-19.8-8.86-19.8-19.8-19.8-19.8,8.86-19.8,19.8Z" style="fill: url(#radial-gradient-15); mix-blend-mode: overlay;"/>
            </g>
            <g>
              <path d="m1299.84,652.01l-1.37,4.78c-.32,1.42-1.35,2.57-2.72,3.06l-3.1,1.1,3.1,1.1c1.37.49,2.4,1.64,2.72,3.06l1.37,4.78,1.36-4.74c.33-1.44,1.38-2.6,2.78-3.08l3.3-1.12-3.3-1.12c-1.4-.47-2.45-1.64-2.78-3.08l-1.36-4.74Z" style="fill: #ebe7df;"/>
              <circle cx="1299.96" cy="660.95" r="12.02" style="fill: url(#radial-gradient-16); mix-blend-mode: overlay;"/>
            </g>
            <g>
              <path d="m1241.3,973.47l-1.37,4.78c-.32,1.42-1.35,2.57-2.72,3.06l-3.1,1.1,3.1,1.1c1.37.49,2.4,1.64,2.72,3.06l1.37,4.78,1.36-4.74c.33-1.44,1.38-2.6,2.78-3.08l3.29-1.12-3.29-1.12c-1.4-.47-2.45-1.64-2.78-3.08l-1.36-4.74Z" style="fill: #ebe7df;"/>
              <path d="m1229.39,982.41c0,6.64,5.38,12.02,12.02,12.02s12.02-5.38,12.02-12.02-5.38-12.02-12.02-12.02-12.02,5.38-12.02,12.02Z" style="fill: url(#radial-gradient-17); mix-blend-mode: overlay;"/>
            </g>
            <g>
              <path d="m1544.82,679.16l-1.36,4.78c-.32,1.42-1.35,2.57-2.72,3.06l-3.1,1.1,3.1,1.1c1.37.49,2.4,1.64,2.72,3.06l1.36,4.78,1.36-4.74c.33-1.44,1.38-2.6,2.78-3.08l3.29-1.12-3.29-1.12c-1.4-.47-2.45-1.64-2.78-3.08l-1.36-4.74Z" style="fill: #ebe7df;"/>
              <circle cx="1544.95" cy="688.09" r="12.02" style="fill: url(#radial-gradient-18); mix-blend-mode: overlay;"/>
            </g>
          </g>
        </g>
        <path d="m1264.62,177.97v-.51s-.02-.47-.02-.47v-.25c-.01-.1-.01-.2-.01-.29l-.03-2.05.02,1.63.02,1.1v.14s.02.22.02.22c0,.17,0,.33.01.51l.02.73v-.33s-.02-.43-.02-.43Z" style="fill: url(#Gradiente_sem_nome_2);"/>
        <polygon points="1264.54 174.15 1264.55 174.4 1264.54 173.76 1264.54 174.15" style="fill: url(#Gradiente_sem_nome_2-2);"/>
        <polygon points="1264.66 178.58 1264.65 178.55 1264.65 178.71 1264.7 179.79 1264.69 179.48 1264.66 178.58" style="fill: url(#Gradiente_sem_nome_2-3);"/>
        <polygon points="1558.24 500.27 1558.32 500.28 1558.22 500.26 1558.24 500.27" style="fill: url(#Gradiente_sem_nome_2-4);"/>
        <polygon points="1559.65 500.42 1559.64 500.42 1559.67 500.43 1559.65 500.42" style="fill: url(#Gradiente_sem_nome_2-5);"/>
        <polygon points="1559.35 500.39 1559.11 500.36 1559 500.35 1558.72 500.32 1558.41 500.28 1558.4 500.28 1558.47 500.29 1558.62 500.31 1558.91 500.35 1559.22 500.38 1559.35 500.39 1559.64 500.42 1559.61 500.42 1559.35 500.39" style="fill: url(#Gradiente_sem_nome_2-6);"/>
        <polygon points="1559.76 500.43 1559.91 500.45 1559.89 500.44 1559.76 500.43" style="fill: url(#Gradiente_sem_nome_2-7);"/>
        <polygon points="1559.94 500.45 1559.91 500.45 1560.05 500.46 1560.32 500.48 1560.25 500.48 1559.94 500.45" style="fill: url(#Gradiente_sem_nome_2-8);"/>
        <path d="m1576.51,501.89h-.09s.06,0,.06,0h.09s-.01,0-.02,0h-.05Z" style="fill: url(#Gradiente_sem_nome_2-9);"/>
        <polygon points="1575.55 501.86 1575.57 501.86 1575.56 501.86 1575.55 501.86" style="fill: url(#Gradiente_sem_nome_2-10);"/>
        <polygon points="1572.81 501.67 1572.56 501.65 1572.77 501.67 1572.9 501.67 1572.87 501.67 1572.81 501.67" style="fill: url(#Gradiente_sem_nome_2-11);"/>
        <polygon points="1572.93 501.68 1572.96 501.68 1572.9 501.67 1572.93 501.68" style="fill: url(#Gradiente_sem_nome_2-12);"/>
      </g>
    </g>
  </g>
</svg>